<svg width="334" height="94" fill="none" xmlns="http://www.w3.org/2000/svg"><g filter="url(#Group 2__a)"><path fill="#E3B873" d="M15 15h293.753v54H15z"/></g><path d="M84.097 48.07v-.255l1.19-.34v-2.55h-4.845l-.34-.51L86.477 36h1.615v8.16h1.785v.765h-1.785v2.55l1.19.34v.255h-5.185Zm-3.06-3.91h4.25v-5.61l-4.25 5.61Zm14.622 4.165a4.48 4.48 0 0 1-2.5-.73c-.747-.488-1.342-1.196-1.784-2.126-.431-.94-.646-2.057-.646-3.349 0-1.292.215-2.402.646-3.332.442-.94 1.037-1.654 1.785-2.142a4.48 4.48 0 0 1 2.499-.73 4.48 4.48 0 0 1 2.499.73c.748.488 1.337 1.202 1.768 2.142.442.93.663 2.04.663 3.332 0 1.292-.221 2.409-.663 3.35-.431.929-1.02 1.637-1.768 2.124a4.48 4.48 0 0 1-2.5.731Zm0-.34c1.303 0 1.955-1.955 1.955-5.865s-.652-5.865-1.955-5.865c-1.304 0-1.955 1.955-1.955 5.865s.651 5.865 1.955 5.865Zm12.838-9.69v9.01l1.36.51v.255h-3.23v-.255l1.36-.51V36.68l-1.02-.255v-.255h2.125c.589 0 1.054.125 1.394.374.351.238.652.595.901 1.071l3.706 7.09 2.839-7.09c.193-.498.453-.861.782-1.088.329-.238.833-.357 1.513-.357h1.785v.255l-1.02.255v10.88l1.02.255v.255h-4.845v-.255l1.02-.255v-9.265l-3.995 9.945h-.51l-5.185-9.945Zm14.881 9.01c0-.668.13-1.275.391-1.819a5.813 5.813 0 0 1 .986-1.445c.385-.408.89-.89 1.513-1.445a24.68 24.68 0 0 0 1.36-1.275c.329-.351.606-.742.833-1.173a3.08 3.08 0 0 0 .34-1.428c0-.748-.181-1.331-.544-1.75-.363-.42-.833-.63-1.411-.63-.329 0-.663.046-1.003.136l-.357.12v2.72l-.221.05a3.787 3.787 0 0 1-.459.034c-.385 0-.697-.113-.935-.34-.227-.238-.34-.55-.34-.935 0-.362.136-.714.408-1.054.283-.34.697-.617 1.241-.833.555-.215 1.224-.323 2.006-.323 1.53 0 2.663.306 3.4.918.737.612 1.105 1.468 1.105 2.567 0 .692-.181 1.287-.544 1.785a4.558 4.558 0 0 1-1.309 1.241c-.51.329-1.196.703-2.057 1.122-.725.352-1.315.663-1.768.935a6.58 6.58 0 0 0-1.241.952c-.374.374-.64.8-.799 1.275h6.29c.079-.612.272-1.122.578-1.53.125-.192.272-.362.442-.51h.51v3.4h-8.415v-.765Z" fill="#fff"/><path fill-rule="evenodd" clip-rule="evenodd" d="M35.25 26.382a.39.39 0 0 1 .398-.382h28.663a.39.39 0 0 1 .399.382v27.622a.39.39 0 0 1-.398.382.39.39 0 0 1-.399-.382v-27.24H35.648a.39.39 0 0 1-.398-.382Z" fill="#fff" stroke="#fff" stroke-width=".5" stroke-linecap="round" stroke-linejoin="round"/><path d="m33.127 32.304 1.626-1.625v23.883h1.04V30.68l1.626 1.625a.52.52 0 1 0 .735-.735l-2.513-2.513a.52.52 0 0 0-.735 0l-2.514 2.513a.52.52 0 1 0 .735.735Z" fill="#fff" stroke="#fff" stroke-width=".25"/><path d="m57.126 52.29 1.634 1.627H34.752v1.039H58.76l-1.634 1.626a.518.518 0 0 0 0 .736.524.524 0 0 0 .738 0l2.527-2.514a.519.519 0 0 0 0-.735l-2.527-2.514a.523.523 0 0 0-.738 0 .518.518 0 0 0 0 .736Z" fill="#fff" stroke="#fff" stroke-width=".25"/><path fill-rule="evenodd" clip-rule="evenodd" d="M46.162 26.116a.395.395 0 0 1 0 .558l-4.739 4.74a.395.395 0 1 1-.559-.559l4.74-4.74a.395.395 0 0 1 .558 0Zm18.3 18.826a.395.395 0 0 1 0 .559l-4.344 4.344a.395.395 0 1 1-.559-.558l4.345-4.345a.395.395 0 0 1 .558 0ZM52.085 26.114a.395.395 0 0 1 .004.558l-10.27 10.401a.395.395 0 0 1-.561-.555l10.268-10.4a.395.395 0 0 1 .56-.004ZM64.594 38.36a.395.395 0 0 1 0 .558L54.588 48.923a.395.395 0 0 1-.558-.558l10.005-10.006a.395.395 0 0 1 .559 0Zm-6.186-12.11a.395.395 0 0 1-.004.558L41.947 43.001a.395.395 0 0 1-.554-.563L57.85 26.245a.395.395 0 0 1 .558.005Zm6.186 5.922a.395.395 0 0 1 0 .558L48.006 49.32a.395.395 0 1 1-.559-.559l16.588-16.588a.395.395 0 0 1 .559 0Zm-.264-5.925a.395.395 0 0 1 0 .559L41.687 49.45a.395.395 0 1 1-.558-.558l22.644-22.645a.395.395 0 0 1 .559 0Z" fill="#fff" stroke="#fff" stroke-width=".5" stroke-linecap="round" stroke-linejoin="round"/><path d="M219.146 48.139v-.255l1.19-.34v-2.55h-4.845l-.34-.51 6.375-8.415h1.615v8.16h1.785v.765h-1.785v2.55l1.19.34v.255h-5.185Zm-3.06-3.91h4.25v-5.61l-4.25 5.61Zm14.605 4.165c-1.428 0-2.51-.284-3.247-.85-.725-.567-1.088-1.304-1.088-2.21 0-.624.272-1.224.816-1.802a4.53 4.53 0 0 1 1.989-1.258c-.748-.42-1.32-.879-1.717-1.377-.385-.51-.578-1.128-.578-1.853 0-.907.363-1.644 1.088-2.21.737-.567 1.819-.85 3.247-.85.714 0 1.337.13 1.87.39.544.261.963.601 1.258 1.02.295.42.442.856.442 1.31 0 .532-.232 1.048-.697 1.547a3.337 3.337 0 0 1-1.598 1.003c1.031.453 1.813.991 2.346 1.615.533.623.799 1.388.799 2.295 0 .589-.181 1.127-.544 1.615-.363.487-.912.878-1.649 1.173-.737.294-1.649.442-2.737.442Zm1.275-7.48c.431-.193.776-.47 1.037-.833.272-.363.408-.822.408-1.377a2.23 2.23 0 0 0-.306-1.14 2.267 2.267 0 0 0-.765-.832 1.656 1.656 0 0 0-.969-.323c-.487 0-.895.192-1.224.578-.317.374-.476.89-.476 1.547 0 .906.765 1.7 2.295 2.38Zm-1.445 7.055c.725 0 1.286-.199 1.683-.595.408-.408.612-.975.612-1.7 0-.544-.272-1.094-.816-1.65-.544-.555-1.264-1.025-2.159-1.41-.635.226-1.133.566-1.496 1.02-.363.442-.544 1.008-.544 1.7 0 .476.119.918.357 1.326a2.74 2.74 0 0 0 2.363 1.309Zm11.229-.085 1.02-.255v-10.88l-1.02-.255v-.255h4.335c2.028 0 3.581.521 4.658 1.564 1.088 1.042 1.632 2.504 1.632 4.386 0 1.881-.544 3.343-1.632 4.386-1.077 1.042-2.63 1.564-4.658 1.564h-4.335v-.255Zm4.335-.17c1.054 0 1.87-.425 2.448-1.275.578-.862.867-2.278.867-4.25s-.289-3.383-.867-4.233c-.578-.862-1.394-1.292-2.448-1.292h-.51v11.05h.51Zm6.112.17 1.36-.51 4.675-11.305h.51l4.845 11.56.85.255v.255h-2.04c-.589 0-1.071-.13-1.445-.391a2.463 2.463 0 0 1-.833-1.054l-.867-2.04h-4.063l-1.122 2.72 1.275.51v.255h-3.145v-.255Zm3.162-3.655h3.723l-1.87-4.471-1.853 4.47Zm10.853 3.655 1.02-.255v-3.91l-3.485-6.97-.85-.255v-.255h2.125c.589 0 1.059.124 1.411.374.362.249.657.606.884 1.07l2.516 5.016 2.584-5.695-1.275-.51v-.255h3.23v.255l-1.36.51-2.975 6.545v4.08l1.02.255v.255h-4.845v-.255Zm12.491.51a4.857 4.857 0 0 1-2.261-.544 3.026 3.026 0 0 1-.799-.561 2.92 2.92 0 0 1-.595.697 6.86 6.86 0 0 1-.34.238h-.425v-3.23h.68a5.37 5.37 0 0 0 .714 1.496c.691.986 1.586 1.479 2.686 1.479.646 0 1.161-.193 1.547-.578.385-.386.578-.901.578-1.547 0-.374-.114-.709-.34-1.003a3.384 3.384 0 0 0-.816-.782 21.24 21.24 0 0 0-1.377-.85 18.24 18.24 0 0 1-1.819-1.14 4.73 4.73 0 0 1-1.19-1.274c-.329-.522-.493-1.134-.493-1.836 0-.556.153-1.054.459-1.496.317-.454.787-.81 1.411-1.071.623-.272 1.388-.408 2.295-.408.657 0 1.314.187 1.972.56.249.137.498.318.748.545.192-.295.391-.527.595-.697a6.21 6.21 0 0 1 .34-.238h.425v3.23h-.68a5.037 5.037 0 0 0-.663-1.48 3.68 3.68 0 0 0-1.02-1.07 2.31 2.31 0 0 0-1.377-.425c-.442 0-.822.175-1.139.527-.318.351-.476.799-.476 1.343 0 .419.119.799.357 1.139.249.328.549.617.901.867.362.249.85.55 1.462.9.714.409 1.292.771 1.734 1.089.442.317.816.714 1.122 1.19.306.464.459 1.003.459 1.615 0 .612-.176 1.173-.527 1.683-.352.498-.879.895-1.581 1.19-.703.294-1.559.442-2.567.442Z" fill="#fff"/><path d="M150.09 69.035V15" stroke="#fff" stroke-width=".75"/><path d="M191.6 28.2c-.263-1.254-1.404-2.2-2.769-2.2a.557.557 0 0 0-.565.55c0 .304.253.55.565.55.935 0 1.696.74 1.696 1.65 0 .91-.761 1.65-1.696 1.65a.557.557 0 0 0-.565.55c0 .303.253.55.565.55 1.365 0 2.506-.947 2.769-2.2h7.405v4.949h-30.521v-4.95h9.609a.557.557 0 0 0 .565-.55.557.557 0 0 0-.565-.55h-1.027a1.69 1.69 0 0 1 1.592-1.1c.935 0 1.695.741 1.695 1.65 0 .91-.76 1.65-1.695 1.65a.557.557 0 0 0-.565.55c0 .304.253.55.565.55 1.558 0 2.826-1.233 2.826-2.75 0-1.515-1.268-2.749-2.826-2.749-1.365 0-2.506.946-2.769 2.2h-8.535v29.145h32.781V28.2H191.6Zm7.405 28.045h-30.521V35.35h30.521v20.896Z" fill="#fff"/><path d="M182.049 27.1c.935 0 1.696.74 1.696 1.65 0 .91-.761 1.65-1.696 1.65a.557.557 0 0 0-.565.55c0 .303.253.55.565.55 1.558 0 2.826-1.234 2.826-2.75 0-1.517-1.268-2.75-2.826-2.75a.557.557 0 0 0-.565.55c0 .304.253.55.565.55Zm3.391 0c.935 0 1.696.74 1.696 1.65 0 .91-.761 1.65-1.696 1.65a.557.557 0 0 0-.565.55c0 .303.253.55.565.55 1.558 0 2.826-1.234 2.826-2.75 0-1.517-1.268-2.75-2.826-2.75a.557.557 0 0 0-.565.55c0 .304.253.55.565.55Zm-12.999 12.648h12.434a.557.557 0 0 0 .565-.55.557.557 0 0 0-.565-.55h-12.434a.557.557 0 0 0-.565.55c0 .304.253.55.565.55Zm22.607 7.699h-8.477a.558.558 0 0 0-.566.55c0 .304.254.55.566.55h8.477a.558.558 0 0 0 .566-.55.558.558 0 0 0-.566-.55Zm-22.607-3.3h5.652a.557.557 0 0 0 .565-.55.557.557 0 0 0-.565-.55h-5.652a.557.557 0 0 0-.565.55c0 .304.253.55.565.55Zm22.607 7.699h-5.651a.558.558 0 0 0-.566.55c0 .304.254.55.566.55h5.651a.558.558 0 0 0 .566-.55.558.558 0 0 0-.566-.55Zm-11.869-8.249c0 .304.254.55.566.55h8.477a.558.558 0 0 0 .566-.55.558.558 0 0 0-.566-.55h-8.477a.558.558 0 0 0-.566.55Zm-1.859.391a.57.57 0 0 0 .164-.39.567.567 0 0 0-.164-.39.604.604 0 0 0-.803 0 .57.57 0 0 0-.163.39c0 .142.062.285.163.39a.583.583 0 0 0 .803 0Zm-6.618 4.009c0 .304.253.55.565.55h8.478a.557.557 0 0 0 .565-.55.557.557 0 0 0-.565-.55h-8.478a.557.557 0 0 0-.565.55Zm-2.261.55c.147 0 .294-.06.401-.16a.57.57 0 0 0 .164-.39.544.544 0 0 0-.164-.385.597.597 0 0 0-.802-.005.567.567 0 0 0-.164.39.57.57 0 0 0 .164.39.59.59 0 0 0 .401.16Zm22.607-4.399a.583.583 0 0 0 .402-.16.548.548 0 0 0 0-.78.604.604 0 0 0-.803 0 .567.567 0 0 0-.164.39.57.57 0 0 0 .164.39c.108.104.255.16.401.16Zm-8.477 7.698h-14.13a.557.557 0 0 0-.565.55c0 .304.253.55.565.55h14.13a.557.557 0 0 0 .565-.55.557.557 0 0 0-.565-.55Z" fill="#fff"/><defs><filter id="Group 2__a" x="0" y="0" width="333.753" height="94" filterUnits="userSpaceOnUse" color-interpolation-filters="sRGB"><feFlood flood-opacity="0" result="BackgroundImageFix"/><feColorMatrix in="SourceAlpha" values="0 0 0 0 0 0 0 0 0 0 0 0 0 0 0 0 0 0 127 0" result="hardAlpha"/><feOffset dx="5" dy="5"/><feGaussianBlur stdDeviation="10"/><feColorMatrix values="0 0 0 0 0.890196 0 0 0 0 0.721569 0 0 0 0 0.45098 0 0 0 0.5 0"/><feBlend in2="BackgroundImageFix" result="effect1_dropShadow_1_11286"/><feBlend in="SourceGraphic" in2="effect1_dropShadow_1_11286" result="shape"/></filter></defs></svg>