<svg width="88" height="88" viewBox="0 0 88 88" fill="none" xmlns="http://www.w3.org/2000/svg">
<g filter="url(#filter0_d_81429_3)">
<rect x="23" y="18" width="41.5435" height="41.7571" rx="20.7718" fill="#E3B873"/>
<rect x="19" y="14" width="49.5435" height="49.7571" rx="24.7718" stroke="white" stroke-width="8"/>
</g>
<path d="M38.3652 44.7517C37.3932 44.7517 36.5112 44.4937 35.7192 43.9777C34.9272 43.4617 34.2972 42.7117 33.8292 41.7277C33.3732 40.7317 33.1452 39.5497 33.1452 38.1817C33.1452 36.8137 33.3732 35.6377 33.8292 34.6537C34.2972 33.6577 34.9272 32.9017 35.7192 32.3857C36.5112 31.8697 37.3932 31.6117 38.3652 31.6117C39.3372 31.6117 40.2192 31.8697 41.0112 32.3857C41.8032 32.9017 42.4272 33.6577 42.8832 34.6537C43.3512 35.6377 43.5852 36.8137 43.5852 38.1817C43.5852 39.5497 43.3512 40.7317 42.8832 41.7277C42.4272 42.7117 41.8032 43.4617 41.0112 43.9777C40.2192 44.4937 39.3372 44.7517 38.3652 44.7517ZM38.3652 44.3917C39.7452 44.3917 40.4352 42.3217 40.4352 38.1817C40.4352 34.0417 39.7452 31.9717 38.3652 31.9717C36.9852 31.9717 36.2952 34.0417 36.2952 38.1817C36.2952 42.3217 36.9852 44.3917 38.3652 44.3917ZM44.9338 43.6717C44.9338 42.9637 45.0718 42.3217 45.3478 41.7457C45.6358 41.1577 45.9838 40.6477 46.3918 40.2157C46.7998 39.7837 47.3338 39.2737 47.9938 38.6857C48.6058 38.1457 49.0858 37.6957 49.4338 37.3357C49.7818 36.9637 50.0758 36.5497 50.3158 36.0937C50.5558 35.6257 50.6758 35.1217 50.6758 34.5817C50.6758 33.7897 50.4838 33.1717 50.0998 32.7277C49.7158 32.2837 49.2178 32.0617 48.6058 32.0617C48.2578 32.0617 47.9038 32.1097 47.5438 32.2057L47.1658 32.3317V35.2117L46.9318 35.2657C46.7398 35.2897 46.5778 35.3017 46.4458 35.3017C46.0378 35.3017 45.7078 35.1817 45.4558 34.9417C45.2158 34.6897 45.0958 34.3597 45.0958 33.9517C45.0958 33.5677 45.2398 33.1957 45.5278 32.8357C45.8278 32.4757 46.2658 32.1817 46.8418 31.9537C47.4298 31.7257 48.1378 31.6117 48.9658 31.6117C50.5858 31.6117 51.7858 31.9357 52.5658 32.5837C53.3458 33.2317 53.7358 34.1377 53.7358 35.3017C53.7358 36.0337 53.5438 36.6637 53.1598 37.1917C52.7878 37.7197 52.3258 38.1577 51.7738 38.5057C51.2338 38.8537 50.5078 39.2497 49.5958 39.6937C48.8278 40.0657 48.2038 40.3957 47.7238 40.6837C47.2558 40.9597 46.8178 41.2957 46.4098 41.6917C46.0138 42.0877 45.7318 42.5377 45.5638 43.0417H52.2238C52.3078 42.3937 52.5118 41.8537 52.8358 41.4217C52.9678 41.2177 53.1238 41.0377 53.3038 40.8817H53.8438V44.4817H44.9338V43.6717Z" fill="white"/>
<defs>
<filter id="filter0_d_81429_3" x="0" y="0" width="87.5435" height="87.7571" filterUnits="userSpaceOnUse" color-interpolation-filters="sRGB">
<feFlood flood-opacity="0" result="BackgroundImageFix"/>
<feColorMatrix in="SourceAlpha" type="matrix" values="0 0 0 0 0 0 0 0 0 0 0 0 0 0 0 0 0 0 127 0" result="hardAlpha"/>
<feOffset dy="5"/>
<feGaussianBlur stdDeviation="7.5"/>
<feColorMatrix type="matrix" values="0 0 0 0 0.890196 0 0 0 0 0.721569 0 0 0 0 0.45098 0 0 0 0.15 0"/>
<feBlend mode="normal" in2="BackgroundImageFix" result="effect1_dropShadow_81429_3"/>
<feBlend mode="normal" in="SourceGraphic" in2="effect1_dropShadow_81429_3" result="shape"/>
</filter>
</defs>
</svg>
