<svg width="88" height="88" viewBox="0 0 88 88" fill="none" xmlns="http://www.w3.org/2000/svg">
<g filter="url(#filter0_d_81429_5)">
<rect x="23" y="18" width="41.5435" height="41.7571" rx="20.7718" fill="#E3B873"/>
<rect x="19" y="14" width="49.5435" height="49.7571" rx="24.7718" stroke="white" stroke-width="8"/>
</g>
<path d="M37.9994 45.1323C37.0274 45.1323 36.1454 44.8743 35.3534 44.3583C34.5614 43.8423 33.9314 43.0923 33.4634 42.1083C33.0074 41.1123 32.7794 39.9303 32.7794 38.5623C32.7794 37.1943 33.0074 36.0183 33.4634 35.0343C33.9314 34.0383 34.5614 33.2823 35.3534 32.7663C36.1454 32.2503 37.0274 31.9923 37.9994 31.9923C38.9714 31.9923 39.8534 32.2503 40.6454 32.7663C41.4374 33.2823 42.0614 34.0383 42.5174 35.0343C42.9854 36.0183 43.2194 37.1943 43.2194 38.5623C43.2194 39.9303 42.9854 41.1123 42.5174 42.1083C42.0614 43.0923 41.4374 43.8423 40.6454 44.3583C39.8534 44.8743 38.9714 45.1323 37.9994 45.1323ZM37.9994 44.7723C39.3794 44.7723 40.0694 42.7023 40.0694 38.5623C40.0694 34.4223 39.3794 32.3523 37.9994 32.3523C36.6194 32.3523 35.9294 34.4223 35.9294 38.5623C35.9294 42.7023 36.6194 44.7723 37.9994 44.7723ZM48.258 44.8623V44.5923L49.518 44.2323V41.5323H44.388L44.028 40.9923L50.778 32.0823H52.488V40.7223H54.378V41.5323H52.488V44.2323L53.748 44.5923V44.8623H48.258ZM45.018 40.7223H49.518V34.7823L45.018 40.7223Z" fill="white"/>
<defs>
<filter id="filter0_d_81429_5" x="0" y="0" width="87.5435" height="87.7571" filterUnits="userSpaceOnUse" color-interpolation-filters="sRGB">
<feFlood flood-opacity="0" result="BackgroundImageFix"/>
<feColorMatrix in="SourceAlpha" type="matrix" values="0 0 0 0 0 0 0 0 0 0 0 0 0 0 0 0 0 0 127 0" result="hardAlpha"/>
<feOffset dy="5"/>
<feGaussianBlur stdDeviation="7.5"/>
<feColorMatrix type="matrix" values="0 0 0 0 0.890196 0 0 0 0 0.721569 0 0 0 0 0.45098 0 0 0 0.15 0"/>
<feBlend mode="normal" in2="BackgroundImageFix" result="effect1_dropShadow_81429_5"/>
<feBlend mode="normal" in="SourceGraphic" in2="effect1_dropShadow_81429_5" result="shape"/>
</filter>
</defs>
</svg>
