<svg width="88" height="88" viewBox="0 0 88 88" fill="none" xmlns="http://www.w3.org/2000/svg">
<g filter="url(#filter0_d_81429_2)">
<rect x="23" y="18.2163" width="41.5435" height="41.7571" rx="20.7718" fill="#E3B873"/>
<rect x="19" y="14.2163" width="49.5435" height="49.7571" rx="24.7718" stroke="white" stroke-width="8"/>
</g>
<path d="M40.4638 45.27C39.4918 45.27 38.6098 45.012 37.8178 44.496C37.0258 43.98 36.3958 43.23 35.9278 42.246C35.4718 41.25 35.2438 40.068 35.2438 38.7C35.2438 37.332 35.4718 36.156 35.9278 35.172C36.3958 34.176 37.0258 33.42 37.8178 32.904C38.6098 32.388 39.4918 32.13 40.4638 32.13C41.4358 32.13 42.3178 32.388 43.1098 32.904C43.9018 33.42 44.5258 34.176 44.9818 35.172C45.4498 36.156 45.6838 37.332 45.6838 38.7C45.6838 40.068 45.4498 41.25 44.9818 42.246C44.5258 43.23 43.9018 43.98 43.1098 44.496C42.3178 45.012 41.4358 45.27 40.4638 45.27ZM40.4638 44.91C41.8438 44.91 42.5338 42.84 42.5338 38.7C42.5338 34.56 41.8438 32.49 40.4638 32.49C39.0838 32.49 38.3938 34.56 38.3938 38.7C38.3938 42.84 39.0838 44.91 40.4638 44.91ZM47.7524 45V44.73L49.0124 44.37V34.488L47.1224 35.82L46.7624 35.37L50.0384 32.4H51.9824V44.37L53.2424 44.73V45H47.7524Z" fill="white"/>
<defs>
<filter id="filter0_d_81429_2" x="0" y="0.216309" width="87.5435" height="87.7571" filterUnits="userSpaceOnUse" color-interpolation-filters="sRGB">
<feFlood flood-opacity="0" result="BackgroundImageFix"/>
<feColorMatrix in="SourceAlpha" type="matrix" values="0 0 0 0 0 0 0 0 0 0 0 0 0 0 0 0 0 0 127 0" result="hardAlpha"/>
<feOffset dy="5"/>
<feGaussianBlur stdDeviation="7.5"/>
<feColorMatrix type="matrix" values="0 0 0 0 0.890196 0 0 0 0 0.721569 0 0 0 0 0.45098 0 0 0 0.15 0"/>
<feBlend mode="normal" in2="BackgroundImageFix" result="effect1_dropShadow_81429_2"/>
<feBlend mode="normal" in="SourceGraphic" in2="effect1_dropShadow_81429_2" result="shape"/>
</filter>
</defs>
</svg>
