<svg width="88" height="88" viewBox="0 0 88 88" fill="none" xmlns="http://www.w3.org/2000/svg">
<g filter="url(#filter0_d_81429_4)">
<rect x="23" y="18" width="41.5435" height="41.7571" rx="20.7718" fill="#E3B873"/>
<rect x="19" y="14" width="49.5435" height="49.7571" rx="24.7718" stroke="white" stroke-width="8"/>
</g>
<path d="M38.1312 44.1323C37.1592 44.1323 36.2772 43.8743 35.4852 43.3583C34.6932 42.8423 34.0632 42.0923 33.5952 41.1083C33.1392 40.1123 32.9112 38.9303 32.9112 37.5623C32.9112 36.1943 33.1392 35.0183 33.5952 34.0343C34.0632 33.0383 34.6932 32.2823 35.4852 31.7663C36.2772 31.2503 37.1592 30.9923 38.1312 30.9923C39.1032 30.9923 39.9852 31.2503 40.7772 31.7663C41.5692 32.2823 42.1932 33.0383 42.6492 34.0343C43.1172 35.0183 43.3512 36.1943 43.3512 37.5623C43.3512 38.9303 43.1172 40.1123 42.6492 41.1083C42.1932 42.0923 41.5692 42.8423 40.7772 43.3583C39.9852 43.8743 39.1032 44.1323 38.1312 44.1323ZM38.1312 43.7723C39.5112 43.7723 40.2012 41.7023 40.2012 37.5623C40.2012 33.4223 39.5112 31.3523 38.1312 31.3523C36.7512 31.3523 36.0612 33.4223 36.0612 37.5623C36.0612 41.7023 36.7512 43.7723 38.1312 43.7723ZM48.4798 44.1323C47.6518 44.1323 46.9438 44.0183 46.3558 43.7903C45.7798 43.5623 45.3418 43.2683 45.0418 42.9083C44.7538 42.5483 44.6098 42.1763 44.6098 41.7923C44.6098 41.3843 44.7298 41.0603 44.9698 40.8203C45.2218 40.5683 45.5518 40.4423 45.9598 40.4423C46.0558 40.4423 46.1518 40.4543 46.2478 40.4783C46.3438 40.4903 46.4098 40.4963 46.4458 40.4963L46.6798 40.5323V43.4123C46.6918 43.4123 46.8178 43.4603 47.0578 43.5563C47.3698 43.6403 47.7238 43.6823 48.1198 43.6823C48.9598 43.6823 49.6018 43.4303 50.0458 42.9263C50.5018 42.4103 50.7298 41.6423 50.7298 40.6223C50.7298 39.5783 50.5078 38.7923 50.0638 38.2643C49.6318 37.7363 49.0438 37.4723 48.2998 37.4723H47.3998V37.0223H48.2998C48.8398 37.0223 49.2898 36.7823 49.6498 36.3023C50.0098 35.8223 50.1898 35.1323 50.1898 34.2323C50.1898 33.3323 50.0038 32.6423 49.6318 32.1623C49.2598 31.6823 48.7858 31.4423 48.2098 31.4423C47.8978 31.4423 47.5978 31.4903 47.3098 31.5863C47.2738 31.5983 47.1538 31.6403 46.9498 31.7123V34.5923L46.7158 34.6463C46.5238 34.6703 46.3618 34.6823 46.2298 34.6823C45.8218 34.6823 45.4918 34.5623 45.2398 34.3223C44.9998 34.0703 44.8798 33.7403 44.8798 33.3323C44.8798 32.9603 45.0238 32.5943 45.3118 32.2343C45.5998 31.8743 46.0198 31.5803 46.5718 31.3523C47.1358 31.1123 47.8018 30.9923 48.5698 30.9923C49.5778 30.9923 50.4298 31.1423 51.1258 31.4423C51.8338 31.7303 52.3618 32.1203 52.7098 32.6123C53.0698 33.1043 53.2498 33.6443 53.2498 34.2323C53.2498 34.9163 53.0758 35.4623 52.7278 35.8703C52.3798 36.2663 51.9238 36.5843 51.3598 36.8243C50.8078 37.0403 50.1778 37.1663 49.4698 37.2023V37.2923C50.2618 37.3283 50.9818 37.4663 51.6298 37.7063C53.0698 38.2823 53.7898 39.2543 53.7898 40.6223C53.7898 41.6783 53.3518 42.5303 52.4758 43.1783C51.6118 43.8143 50.2798 44.1323 48.4798 44.1323Z" fill="white"/>
<defs>
<filter id="filter0_d_81429_4" x="0" y="0" width="87.5435" height="87.7571" filterUnits="userSpaceOnUse" color-interpolation-filters="sRGB">
<feFlood flood-opacity="0" result="BackgroundImageFix"/>
<feColorMatrix in="SourceAlpha" type="matrix" values="0 0 0 0 0 0 0 0 0 0 0 0 0 0 0 0 0 0 127 0" result="hardAlpha"/>
<feOffset dy="5"/>
<feGaussianBlur stdDeviation="7.5"/>
<feColorMatrix type="matrix" values="0 0 0 0 0.890196 0 0 0 0 0.721569 0 0 0 0 0.45098 0 0 0 0.15 0"/>
<feBlend mode="normal" in2="BackgroundImageFix" result="effect1_dropShadow_81429_4"/>
<feBlend mode="normal" in="SourceGraphic" in2="effect1_dropShadow_81429_4" result="shape"/>
</filter>
</defs>
</svg>
